<svg width="13" height="13" viewBox="0 0 13 13" fill="none" xmlns="http://www.w3.org/2000/svg">
<g clip-path="url(#clip0_110_978)">
<path d="M6.82553 11.808C7.83303 10.938 10.8333 8.12137 10.8333 5.41683C10.8333 4.26756 10.3768 3.16536 9.56412 2.3527C8.75146 1.54004 7.64926 1.0835 6.49999 1.0835C5.35072 1.0835 4.24852 1.54004 3.43586 2.3527C2.6232 3.16536 2.16666 4.26756 2.16666 5.41683C2.16666 8.12137 5.16695 10.938 6.17445 11.808C6.26831 11.8785 6.38256 11.9167 6.49999 11.9167C6.61742 11.9167 6.73167 11.8785 6.82553 11.808Z" stroke="#A69684" stroke-width="0.8125" stroke-linecap="round" stroke-linejoin="round"/>
<path d="M6.5 7.0415C7.39746 7.0415 8.125 6.31397 8.125 5.4165C8.125 4.51904 7.39746 3.7915 6.5 3.7915C5.60254 3.7915 4.875 4.51904 4.875 5.4165C4.875 6.31397 5.60254 7.0415 6.5 7.0415Z" stroke="#A69684" stroke-width="0.8125" stroke-linecap="round" stroke-linejoin="round"/>
</g>
<defs>
<clipPath id="clip0_110_978">
<rect width="13" height="13" fill="white"/>
</clipPath>
</defs>
</svg>
