<svg width="15" height="15" viewBox="0 0 15 15" fill="none" xmlns="http://www.w3.org/2000/svg">
<g clip-path="url(#clip0_110_661)">
<path d="M9.085 13.5534C9.10875 13.6125 9.15002 13.663 9.2033 13.6981C9.25657 13.7331 9.31928 13.751 9.38303 13.7494C9.44677 13.7478 9.50849 13.7267 9.55989 13.6889C9.6113 13.6512 9.64994 13.5987 9.67063 13.5384L13.7331 1.66336C13.7531 1.60798 13.7569 1.54805 13.7441 1.49058C13.7313 1.43311 13.7024 1.38048 13.6608 1.33884C13.6191 1.29721 13.5665 1.26829 13.509 1.25548C13.4516 1.24266 13.3916 1.24648 13.3363 1.26648L1.46125 5.32898C1.40094 5.34967 1.34839 5.38831 1.31067 5.43971C1.27295 5.49112 1.25186 5.55284 1.25022 5.61658C1.24859 5.68032 1.2665 5.74304 1.30154 5.79631C1.33658 5.84958 1.38707 5.89086 1.44625 5.91461L6.4025 7.90211C6.55918 7.96484 6.70153 8.05865 6.82098 8.17788C6.94042 8.29711 7.03449 8.43929 7.0975 8.59586L9.085 13.5534Z" stroke="#FFF5E9" stroke-opacity="0.75" stroke-width="1.25" stroke-linecap="round" stroke-linejoin="round"/>
<path d="M13.6587 1.3418L6.82124 8.17867" stroke="#FFF5E9" stroke-opacity="0.75" stroke-width="1.25" stroke-linecap="round" stroke-linejoin="round"/>
</g>
<defs>
<clipPath id="clip0_110_661">
<rect width="15" height="15" fill="white"/>
</clipPath>
</defs>
</svg>
