<svg width="13" height="13" viewBox="0 0 13 13" fill="none" xmlns="http://www.w3.org/2000/svg">
<path d="M8.66668 11.375V10.2917C8.66668 9.71703 8.4384 9.16593 8.03208 8.7596C7.62575 8.35327 7.07465 8.125 6.50001 8.125H3.25001C2.67537 8.125 2.12427 8.35327 1.71795 8.7596C1.31162 9.16593 1.08334 9.71703 1.08334 10.2917V11.375" stroke="#A69684" stroke-width="0.8125" stroke-linecap="round" stroke-linejoin="round"/>
<path d="M4.87501 5.95833C6.07163 5.95833 7.04168 4.98828 7.04168 3.79167C7.04168 2.59505 6.07163 1.625 4.87501 1.625C3.67839 1.625 2.70834 2.59505 2.70834 3.79167C2.70834 4.98828 3.67839 5.95833 4.87501 5.95833Z" stroke="#A69684" stroke-width="0.8125" stroke-linecap="round" stroke-linejoin="round"/>
<path d="M11.9167 11.3749V10.2916C11.9163 9.8115 11.7565 9.34515 11.4624 8.96573C11.1683 8.58632 10.7565 8.31533 10.2917 8.19531" stroke="#A69684" stroke-width="0.8125" stroke-linecap="round" stroke-linejoin="round"/>
<path d="M8.66666 1.69531C9.13271 1.81464 9.5458 2.08569 9.84079 2.46573C10.1358 2.84577 10.2959 3.31318 10.2959 3.79427C10.2959 4.27536 10.1358 4.74277 9.84079 5.12281C9.5458 5.50285 9.13271 5.7739 8.66666 5.89323" stroke="#A69684" stroke-width="0.8125" stroke-linecap="round" stroke-linejoin="round"/>
</svg>
