<svg width="80" height="16" viewBox="0 0 80 16" fill="none" xmlns="http://www.w3.org/2000/svg">
<path d="M12.8903 13.6004C12.4275 13.6004 12.0213 13.4958 11.6716 13.2866C11.3219 13.0775 11.0288 12.769 10.7922 12.3612C10.566 11.9429 10.3963 11.4305 10.2832 10.8239H10.1752V13.3808H8V2.40039H10.4991V4.83177C10.4991 5.11412 10.4837 5.41738 10.4529 5.74157C10.4323 6.06575 10.3963 6.40039 10.3449 6.74549C10.3038 7.09059 10.2523 7.44091 10.1906 7.79647H10.3294C10.422 7.10627 10.5866 6.5468 10.8231 6.11804C11.0597 5.68928 11.363 5.37555 11.7333 5.17686C12.1035 4.97817 12.5252 4.87882 12.9983 4.87882C13.605 4.87882 14.1296 5.03569 14.5718 5.34941C15.0243 5.66314 15.374 6.13373 15.6208 6.76118C15.8677 7.38862 15.9911 8.17815 15.9911 9.12983C15.9911 10.1442 15.8522 10.9808 15.5746 11.6396C15.3072 12.2985 14.9369 12.7899 14.4638 13.1142C14.001 13.4383 13.4765 13.6004 12.8903 13.6004ZM12.011 11.5769C12.3195 11.5769 12.5818 11.4775 12.7978 11.2788C13.0137 11.0697 13.1782 10.7978 13.2914 10.4631C13.4046 10.1181 13.4611 9.74159 13.4611 9.33375C13.4611 8.92591 13.4097 8.54415 13.3068 8.18863C13.204 7.83307 13.0446 7.54549 12.8286 7.32588C12.6126 7.10627 12.3401 6.99647 12.011 6.99647C11.867 6.99647 11.7178 7.02261 11.5636 7.0749C11.4196 7.12719 11.2808 7.21085 11.147 7.32588C11.0237 7.43046 10.9106 7.57163 10.8077 7.74941C10.7048 7.91673 10.6226 8.12591 10.5609 8.37687C10.4991 8.61735 10.4683 8.89447 10.4683 9.20823V9.31807C10.4683 9.70495 10.5094 10.0396 10.5917 10.322C10.6842 10.6043 10.8026 10.8396 10.9465 11.0278C11.0905 11.2161 11.255 11.3573 11.4402 11.4514C11.6253 11.535 11.8156 11.5769 12.011 11.5769Z" fill="white"/>
<path d="M20.4057 13.6005C19.6241 13.6005 18.93 13.4436 18.3232 13.1299C17.7164 12.8057 17.2433 12.3246 16.9039 11.6867C16.5645 11.0384 16.3948 10.2279 16.3948 9.25535C16.3948 8.24103 16.5697 7.41485 16.9193 6.77695C17.2793 6.12858 17.7626 5.65276 18.3694 5.34949C18.9865 5.03577 19.6807 4.87891 20.4521 4.87891C21.2542 4.87891 21.9536 5.04099 22.5501 5.36518C23.1569 5.67891 23.6249 6.15995 23.954 6.80831C24.2933 7.44623 24.463 8.25671 24.463 9.23967C24.463 10.2541 24.283 11.0854 23.9231 11.7338C23.5734 12.3718 23.0901 12.8423 22.4729 13.1456C21.8662 13.4489 21.1771 13.6005 20.4057 13.6005ZM20.4675 11.7338C20.7863 11.7338 21.0537 11.645 21.2697 11.4671C21.4857 11.2789 21.6502 11.007 21.7633 10.6514C21.8765 10.2959 21.933 9.87239 21.933 9.38087C21.933 8.83711 21.8713 8.38215 21.7479 8.01615C21.6245 7.63969 21.4445 7.35211 21.208 7.15342C20.9817 6.95472 20.7041 6.85538 20.3749 6.85538C20.0664 6.85538 19.8041 6.94949 19.5881 7.13773C19.3722 7.31551 19.2077 7.58217 19.0945 7.93773C18.9813 8.29327 18.9248 8.72207 18.9248 9.22399C18.9248 10.0188 19.0585 10.6358 19.3259 11.075C19.6036 11.5142 19.9841 11.7338 20.4675 11.7338Z" fill="white"/>
<path d="M28.2507 13.5688C27.2942 13.5688 26.5794 13.3231 26.1063 12.8316C25.6435 12.3296 25.4121 11.5557 25.4121 10.51V7.07471H24.5173V5.47471H24.5637C25.2013 5.39104 25.6538 5.17667 25.9212 4.83157C26.1886 4.47601 26.3532 3.94268 26.4149 3.23157V3.2002H27.8805V5.09824H29.7471V7.13745H27.8805V10.2747C27.8805 10.6721 27.973 10.9544 28.1581 11.1218C28.3535 11.2891 28.5901 11.3728 28.8677 11.3728C29.0117 11.3728 29.1609 11.3518 29.3151 11.31C29.4694 11.2682 29.6133 11.2107 29.7471 11.1375V13.3492C29.4282 13.4433 29.1454 13.5008 28.8986 13.5218C28.6517 13.5532 28.4358 13.5688 28.2507 13.5688Z" fill="white"/>
<path d="M35.2878 13.6004C34.825 13.6004 34.4188 13.4958 34.0691 13.2866C33.7194 13.0775 33.4263 12.769 33.1898 12.3612C32.9635 11.9429 32.7938 11.4305 32.6807 10.8239H32.5727V13.3808H30.3975V2.40039H32.8967V4.83177C32.8967 5.11412 32.8813 5.41738 32.8504 5.74157C32.8298 6.06575 32.7938 6.40039 32.7424 6.74549C32.7013 7.09059 32.6498 7.44091 32.5882 7.79647H32.727C32.8195 7.10627 32.9841 6.5468 33.2206 6.11804C33.4572 5.68928 33.7606 5.37555 34.1308 5.17686C34.501 4.97817 34.9227 4.87882 35.3958 4.87882C36.0026 4.87882 36.5271 5.03569 36.9694 5.34941C37.4218 5.66314 37.7715 6.13373 38.0184 6.76118C38.2652 7.38862 38.3886 8.17815 38.3886 9.12983C38.3886 10.1442 38.2498 10.9808 37.9721 11.6396C37.7047 12.2985 37.3345 12.7899 36.8614 13.1142C36.3986 13.4383 35.8741 13.6004 35.2878 13.6004ZM34.4085 11.5769C34.717 11.5769 34.9793 11.4775 35.1953 11.2788C35.4113 11.0697 35.5758 10.7978 35.689 10.4631C35.8021 10.1181 35.8586 9.74159 35.8586 9.33375C35.8586 8.92591 35.8072 8.54415 35.7044 8.18863C35.6015 7.83307 35.4421 7.54549 35.2262 7.32588C35.0102 7.10627 34.7376 6.99647 34.4085 6.99647C34.2646 6.99647 34.1154 7.02261 33.9611 7.0749C33.8171 7.12719 33.6783 7.21085 33.5446 7.32588C33.4212 7.43046 33.3081 7.57163 33.2052 7.74941C33.1024 7.91673 33.0201 8.12591 32.9584 8.37687C32.8967 8.61735 32.8658 8.89447 32.8658 9.20823V9.31807C32.8658 9.70495 32.907 10.0396 32.9893 10.322C33.0818 10.6043 33.2001 10.8396 33.3441 11.0278C33.4881 11.2161 33.6526 11.3573 33.8377 11.4514C34.0228 11.535 34.2131 11.5769 34.4085 11.5769Z" fill="#FAB842"/>
<path d="M41.1226 13.6005C40.7111 13.6005 40.3203 13.5273 39.9501 13.3809C39.5798 13.2345 39.2765 12.9992 39.0399 12.675C38.8034 12.3403 38.6851 11.8959 38.6851 11.3417C38.6851 10.8292 38.7828 10.4162 38.9782 10.1025C39.1736 9.77823 39.4358 9.52207 39.765 9.33383C40.0941 9.13511 40.4541 8.98871 40.8449 8.89455C41.2357 8.78999 41.6214 8.70111 42.0018 8.62791C42.5366 8.52335 42.9378 8.43967 43.2051 8.37695C43.4726 8.31423 43.6526 8.24103 43.7451 8.15735C43.8479 8.07367 43.8994 7.95864 43.8994 7.81224C43.8994 7.50897 43.7862 7.27891 43.56 7.12204C43.344 6.96518 43.056 6.88675 42.6961 6.88675C42.4698 6.88675 42.2435 6.92858 42.0173 7.01224C41.791 7.0959 41.6059 7.24753 41.4619 7.46714C41.3179 7.67629 41.2511 7.97956 41.2614 8.37695L39.0399 8.22007C39.0194 7.56126 39.117 7.01747 39.333 6.58871C39.549 6.14949 39.8421 5.80963 40.2123 5.5691C40.5929 5.31812 41.0042 5.14035 41.4465 5.03577C41.899 4.93119 42.3464 4.87891 42.7886 4.87891C43.6011 4.87891 44.2696 5.03577 44.7941 5.34949C45.3186 5.65276 45.7043 6.09721 45.9511 6.68283C46.2082 7.25799 46.3368 7.95864 46.3368 8.78479V13.3809H44.177V11.0122H44.0845C44.0434 11.4828 43.889 11.9168 43.6217 12.3142C43.3646 12.7011 43.02 13.0149 42.5881 13.2554C42.1664 13.4854 41.6779 13.6005 41.1226 13.6005ZM42.1562 11.7495C42.331 11.7495 42.5161 11.7182 42.7115 11.6554C42.9172 11.5822 43.1074 11.4671 43.2823 11.3103C43.4674 11.1534 43.6166 10.939 43.7297 10.6671C43.8428 10.3848 43.8994 10.0397 43.8994 9.63183V9.25535L44.3159 9.20831C44.2336 9.34423 44.0948 9.45407 43.8994 9.53775C43.7142 9.62135 43.5034 9.68935 43.2669 9.74167C43.0303 9.78351 42.7886 9.83055 42.5418 9.88279C42.3053 9.92463 42.0842 9.98743 41.8785 10.071C41.6728 10.1442 41.503 10.2489 41.3694 10.3848C41.2459 10.5103 41.1842 10.6881 41.1842 10.9182C41.1842 11.19 41.2768 11.3992 41.4619 11.5456C41.6574 11.6815 41.8887 11.7495 42.1562 11.7495Z" fill="#FAB842"/>
<path d="M47.0768 13.3809V5.09851H49.1902V8.47103H49.3137C49.3753 7.65538 49.5091 6.9861 49.7148 6.46322C49.9205 5.92989 50.2136 5.5325 50.5941 5.27107C50.9746 5.00963 51.458 4.87891 52.0442 4.87891C52.9287 4.87891 53.5921 5.17695 54.0343 5.77303C54.4868 6.3691 54.713 7.25799 54.713 8.43967V13.3809H52.2139V8.76911C52.2139 8.20439 52.1265 7.78087 51.9517 7.49851C51.7871 7.21616 51.5197 7.07499 51.1495 7.07499C50.8409 7.07499 50.5684 7.18479 50.3318 7.40439C50.0953 7.624 49.9101 7.97956 49.7765 8.47103C49.6428 8.96255 49.5759 9.62135 49.5759 10.4475V13.3809H47.0768Z" fill="#FAB842"/>
<path d="M58.4218 13.6004C57.8355 13.6004 57.3059 13.4383 56.8328 13.1142C56.37 12.7899 55.9998 12.2985 55.7221 11.6396C55.4547 10.9808 55.321 10.1494 55.321 9.14551C55.321 8.19383 55.4444 7.40431 55.6912 6.77686C55.9381 6.13895 56.2878 5.66314 56.7403 5.34941C57.1928 5.03569 57.7224 4.87882 58.3292 4.87882C58.8023 4.87882 59.2188 4.97817 59.5788 5.17686C59.9491 5.37555 60.2524 5.68928 60.489 6.11804C60.7255 6.5468 60.8901 7.10627 60.9827 7.79647H61.1215C61.07 7.44091 61.0187 7.09059 60.9672 6.74549C60.9158 6.40039 60.8747 6.06575 60.8438 5.74157C60.8232 5.41738 60.813 5.11412 60.813 4.83177V2.40039H63.3121V13.3808H61.1369V10.8239H61.0289C60.9158 11.4305 60.741 11.9429 60.5044 12.3612C60.2782 12.769 59.9902 13.0775 59.6405 13.2866C59.3011 13.4958 58.8949 13.6004 58.4218 13.6004ZM59.3011 11.5769C59.4965 11.5769 59.6868 11.535 59.8719 11.4514C60.0571 11.3573 60.2216 11.2161 60.3655 11.0278C60.5095 10.8396 60.6227 10.6043 60.705 10.322C60.7975 10.0396 60.8438 9.70495 60.8438 9.31807V9.20823C60.8438 8.89447 60.813 8.61735 60.7512 8.37687C60.6895 8.12591 60.6072 7.91673 60.5044 7.74941C60.4015 7.57163 60.2833 7.43046 60.1496 7.32588C60.0159 7.21085 59.8719 7.12719 59.7176 7.0749C59.5736 7.02261 59.4297 6.99647 59.2857 6.99647C58.9669 6.99647 58.6995 7.10627 58.4835 7.32588C58.2675 7.54549 58.1081 7.83307 58.0053 8.18863C57.9024 8.53375 57.851 8.91023 57.851 9.31807C57.851 9.72591 57.9075 10.1024 58.0207 10.4474C58.1339 10.7926 58.2983 11.0697 58.5143 11.2788C58.7303 11.4775 58.9926 11.5769 59.3011 11.5769Z" fill="#FAB842"/>
<path d="M67.9427 13.6005C67.1611 13.6005 66.467 13.4436 65.8602 13.1299C65.2534 12.8057 64.7802 12.3246 64.4409 11.6867C64.1015 11.0384 63.9318 10.2279 63.9318 9.25535C63.9318 8.24103 64.1066 7.41485 64.4563 6.77695C64.8162 6.12858 65.2996 5.65276 65.9064 5.34949C66.5235 5.03577 67.2177 4.87891 67.989 4.87891C68.7912 4.87891 69.4906 5.04099 70.0871 5.36518C70.6938 5.67891 71.1618 6.15995 71.4909 6.80831C71.8303 7.44623 72 8.25671 72 9.23967C72 10.2541 71.82 11.0854 71.4601 11.7338C71.1104 12.3718 70.627 12.8423 70.0099 13.1456C69.4032 13.4489 68.7141 13.6005 67.9427 13.6005ZM68.0045 11.7338C68.3233 11.7338 68.5906 11.645 68.8066 11.4671C69.0226 11.2789 69.1872 11.007 69.3003 10.6514C69.4134 10.2959 69.47 9.87239 69.47 9.38087C69.47 8.83711 69.4083 8.38215 69.2849 8.01615C69.1614 7.63969 68.9815 7.35211 68.745 7.15342C68.5187 6.95472 68.241 6.85538 67.9119 6.85538C67.6034 6.85538 67.3411 6.94949 67.1251 7.13773C66.9092 7.31551 66.7446 7.58217 66.6314 7.93773C66.5183 8.29327 66.4618 8.72207 66.4618 9.22399C66.4618 10.0188 66.5955 10.6358 66.8629 11.075C67.1406 11.5142 67.5211 11.7338 68.0045 11.7338Z" fill="#FAB842"/>
</svg>
